<svg xmlns="http://www.w3.org/2000/svg" viewBox="0 0 1440 800"><defs><style>.cls-1{isolation:isolate;}.cls-10,.cls-2{fill:#dbe8f1;}.cls-3{fill:#cdcadc;mix-blend-mode:multiply;}.cls-4{fill:#597ca0;}.cls-5{fill:#fff;}.cls-6{fill:#34495e;}.cls-7{fill:#466f8c;}.cls-8{fill:#747d86;}.cls-9{fill:#1d1d1b;}.cls-10{opacity:0.3;}.cls-11{fill:#28485d;}.cls-12{fill:#72166b;}</style></defs><title>Artboard 1</title><g class="cls-1"><g id="Layer_1" data-name="Layer 1"><rect class="cls-2" width="1440" height="800"/><polygon class="cls-3" points="60.87 128.66 154.44 342.57 231.31 372.66 365 314.18 248.04 46.79 60.87 128.66"/><polygon class="cls-4" points="218.88 378.1 352.57 319.62 235.6 52.23 48.44 134.1 142 348.01 195.48 324.62 218.88 378.1"/><polygon class="cls-5" points="142 348.01 218.88 378.1 195.48 324.62 142 348.01"/><path class="cls-3" d="M1360,120.36l-24.34-7.7h0l-5.29-1.68,0-.14L1318.26,107l0,.14L1180,63.44h0l-6.89-2.18-89.82,284,72.9,23.06-5-1.57-7.32,23.21,7.73-4,4,7.73,7.31-23.2,65.41,20.68,0,.12,12.15,3.84,0-.11,5.29,1.68h0l17.46,5.52h.06l6.83,2.16A18.21,18.21,0,0,0,1293,392.45l78.83-249.23A18.21,18.21,0,0,0,1360,120.36Z"/><path class="cls-5" d="M1285.16,390a18.21,18.21,0,0,1-22.86,11.88l-180-56.92,89.82-284,180,56.92A18.21,18.21,0,0,1,1364,140.74Z"/><path class="cls-6" d="M1278.27,387.79a18.21,18.21,0,0,1-22.86,11.88l-180-56.92,89.82-284,180,56.92a18.21,18.21,0,0,1,11.87,22.86Z"/><rect class="cls-3" x="1130.77" y="247.83" width="297.85" height="6.67" transform="translate(653.04 1394.84) rotate(-72.38)"/><rect class="cls-2" x="1122.45" y="242.19" width="298.11" height="12.74" transform="translate(651.52 1386.15) rotate(-72.47)"/><polygon class="cls-7" points="1149.23 366.09 1143.35 364.23 1136.04 387.44 1143.77 383.42 1147.8 391.15 1155.11 367.94 1149.23 366.09"/><path class="cls-3" d="M1380.6,710.81c-1.54-.71-7.82-2.57-16.22-4.54.49-5.06.37-9.75.72-13.79,4.61-.71,7.34-1,7.34-1l-2.3-9.94-.15,0,.15-.13-2.52-10.69s-12.49-1.6-44.68,7.51c-26.09,7.39-41.51,19.26-48.88,21s-26.49-2-53.14,3c-32.87,6.21-43.33,13.21-43.33,13.21l2.52,10.69h0l2,8.81s2.52-.8,6.82-2.05c2.26,3.48,4.29,7.93,7.06,12.45a133.87,133.87,0,0,0-12.48,11.14c-2.86,3.51-4.36,6.15-3,8.87s8.44,4.75,12.64-1.74a124.39,124.39,0,0,1,8.13-11c.79.89,1.63,1.78,2.54,2.63,12.36,11.55,40.6,8.63,53.55-1.73s13.09-30.92,13.8-34.51,6.27-5.05,6.27-5.05,5.63-1.17,7.86,1.72,11.52,21.24,27.73,24.73,42.79-6.5,48.7-22.35q.56-1.5,1-3a124.09,124.09,0,0,1,12.3,6.4c6.62,4,12.08-1,12.11-4S1384.72,712.71,1380.6,710.81Zm-21-5.6a214.58,214.58,0,0,0-32.57-4.78c12.36-3.27,23.7-5.52,32-6.94A40.6,40.6,0,0,1,1359.62,705.21Zm-5.37-21.92a9.36,9.36,0,0,1,1.34,1.54l-60.2,13.77C1309.08,686.5,1346,676.06,1354.25,683.29ZM1254.1,708.05l-59.22,13.55a8,8,0,0,1,.27-.85C1199.29,710.69,1236.23,703.62,1254.1,708.05Zm-58.89,23.11c8.1-2.22,19.33-5.06,31.87-7.56a215.73,215.73,0,0,0-27.25,18.72A40.46,40.46,0,0,1,1195.21,731.17Zm59.57,18.31c-9.27,7.3-34.75,12.23-46.26,3a35.74,35.74,0,0,1-3.89-3.66c8.57-9.65,21.07-20.78,35.93-25,5.11-1.48,13.73-3.84,24.14-6.66C1267.68,726.61,1264,742.24,1254.78,749.47Zm101.64-31.86c-6.17,13.43-31.17,20.39-42.73,18-11.4-2.37-21.68-14.64-23.31-24.48,10.59-2.05,19.39-3.73,24.63-4.65,15.14-2.69,31.19,1.74,43.11,6.6A35.35,35.35,0,0,1,1356.42,717.61Z"/><path class="cls-8" d="M1367.67,713.86c-3.53-1.62-31.7-9.25-53.55-10.39a362.71,362.71,0,0,1,45.39-9l-2.31-9.94-190.3,43.54,2.31,9.94a453.57,453.57,0,0,1,44.92-11.37c-19.13,10.65-41.06,29.9-43.51,32.9-2.86,3.51-4.36,6.15-3,8.87s8.44,4.75,12.64-1.74,22.52-32.79,47.33-39.91c7.09-2,20.86-5.79,36.9-10.1,16.29-3.19,30.31-5.88,37.57-7.17,25.41-4.52,53.45,11,60.07,15s12.08-1,12.11-4S1371.78,715.75,1367.67,713.86Z"/><path class="cls-9" d="M1310,681.27c-26.09,7.39-41.52,19.27-48.91,21s-26.5-2-53.14,3c-32.87,6.2-43.33,13.21-43.33,13.21l2.52,10.69c10.63,1.54,11.44,17.52,23.8,29.08s40.6,8.63,53.55-1.73,13.09-30.92,13.8-34.51,6.27-5.05,6.27-5.05,5.63-1.17,7.87,1.72S1284,740,1300.18,743.45s42.79-6.5,48.7-22.35-.49-30.52,8.33-36.64l-2.52-10.69S1342.19,672.16,1310,681.27Zm-68.18,71.25c-9.27,7.3-34.75,12.23-46.26,3s-16-25.35-13.37-31.68c4.75-11.54,52.68-19.16,65.45-10C1256.44,720.16,1253.58,743.26,1241.82,752.52Zm99.49-66.18c5.15,4.5,8.34,20.89,2.17,34.32s-31.17,20.39-42.73,18c-14.65-3-27.52-22.44-22.47-32C1285.62,692.7,1331.91,678.13,1341.31,686.34Z"/><path class="cls-10" d="M1241.82,752.52c-9.27,7.3-34.75,12.23-46.26,3s-16-25.35-13.37-31.68c4.75-11.54,52.68-19.16,65.45-10C1256.44,720.16,1253.58,743.26,1241.82,752.52Z"/><path class="cls-10" d="M1341.31,686.34c5.15,4.5,8.34,20.89,2.17,34.32s-31.17,20.39-42.73,18c-14.65-3-27.52-22.44-22.47-32C1285.62,692.7,1331.91,678.13,1341.31,686.34Z"/><g id="Group_1_Clipping_Path" data-name="Group 1 Clipping Path"><path class="cls-11" d="M98.53,686l9.22,9.22,1-1a4.44,4.44,0,0,0,0-6.27l-.55-.55L116.87,676a3,3,0,0,0,4.14-4.38l-9.79-9.8a3,3,0,1,0-4.27,4.27l.14.14-11.35,8.62-.52-.52a4.43,4.43,0,0,0-6.27,0l-1,1,9.22,9.23Z"/><rect class="cls-5" x="77.39" y="692.74" width="23.94" height="1.99" transform="translate(-464.37 266.38) rotate(-45)"/></g><polygon class="cls-3" points="253.46 135.62 229.02 143.01 73.35 235.98 59.16 244.45 58.97 244.57 63.2 251.66 67.43 258.75 67.61 258.63 81.81 250.15 237.49 157.18 255.58 139.17 261.6 133.16 253.46 135.62"/><g id="pencil"><g id="pencil-2" data-name="pencil"><polygon class="cls-12" points="216.49 160.11 212.25 153.02 42.17 254.6 46.4 261.69 50.64 268.78 220.72 167.19 216.49 160.11"/><polygon class="cls-9" points="244.84 143.17 236.69 145.64 238.81 149.18 244.84 143.17"/><polygon class="cls-5" points="236.69 145.64 212.25 153.02 220.72 167.19 238.81 149.18 236.69 145.64"/><polygon class="cls-8" points="50.82 268.67 42.36 254.49 56.55 246.01 65.02 260.18 50.82 268.67"/></g></g><g id="Group_1_Clipping_Path-2" data-name="Group 1 Clipping Path"><path class="cls-11" d="M145.52,720.18l10.27-8-.91-1.17a4.44,4.44,0,0,0-6.23-.76l-.61.48-10.24-9.94a3,3,0,0,0-3.85-4.64L123,704.66a3,3,0,0,0,3.72,4.76l.16-.12,7.18,12.3-.58.46a4.43,4.43,0,0,0-.76,6.23l.91,1.16,10.27-8Z"/><rect class="cls-5" x="151.12" y="718.25" width="1.99" height="23.94" transform="translate(-417.79 249.01) rotate(-38.06)"/></g><g id="Group_1_Clipping_Path-3" data-name="Group 1 Clipping Path"><path class="cls-11" d="M206,742.6l10.27-8-.91-1.17a4.44,4.44,0,0,0-6.23-.76l-.61.48-10.24-9.94a3,3,0,0,0-3.85-4.64l-10.91,8.54a3,3,0,0,0,3.72,4.76l.16-.12,7.18,12.3-.58.46a4.43,4.43,0,0,0-.76,6.23l.91,1.16,10.27-8Z"/><rect class="cls-5" x="211.56" y="740.67" width="1.99" height="23.94" transform="translate(-418.77 291.04) rotate(-38.06)"/></g><g id="Group_1_Clipping_Path-4" data-name="Group 1 Clipping Path"><path class="cls-11" d="M78.45,748.89,83,761.11l1.39-.51A4.44,4.44,0,0,0,87,754.9l-.27-.73,12.57-6.74a3,3,0,0,0,5.58-2.26l-4.82-13a3,3,0,1,0-5.66,2.1l.06.19-13.9,3.11-.26-.69a4.43,4.43,0,0,0-5.7-2.61l-1.38.51L77.75,747Z"/><rect class="cls-5" x="54.91" y="751.13" width="23.94" height="1.99" transform="translate(-257.91 70.45) rotate(-20.39)"/></g></g></g></svg>