<svg id="Layer_1" data-name="Layer 1" xmlns="http://www.w3.org/2000/svg" viewBox="0 0 144 144"><defs><style>.cls-1{fill:#fff;}.cls-2{fill:#34495e;}</style></defs><title>Artboard 1</title><circle class="cls-1" cx="68.29" cy="64.37" r="56.5"/><path class="cls-2" d="M81.06,67.78c-1.17-1.49-4-2-4-2a24.1,24.1,0,0,1-4.72-1.88l-.69-1V60.91h0a6.07,6.07,0,0,0,1.48-3.15s1.74-.47,1.64-3.27c0,0,.07-1.41-1.1-.81,0,0,0-.08,0-.21,1.87-2.69.29-6,.29-6-3.25-3.9-8.54-3.13-8.54-3.13.89.15.74,1.43.74,1.43a3.75,3.75,0,0,0-3.42.47.89.89,0,0,1,1.19.48C63.79,47.38,62,48,62,48c.77.45.27,1.56.27,1.56a3.63,3.63,0,0,0,.58,3.76c0,.22.05.35.05.35-1.17-.6-1.1.8-1.1.8-.1,2.81,1.64,3.27,1.64,3.27a6.11,6.11,0,0,0,1.48,3.15h0v1.92l-.69,1a24.09,24.09,0,0,1-4.73,1.88s-2.84.54-4,2c0,0-1.61,1.33-1.61,11.63h28.8C83,72.17,81.06,67.78,81.06,67.78Z"/><path class="cls-2" d="M35.11,31.17V97.55h66.39V31.18Zm56.65,49H44.83V39.31H91.77Z"/></svg>