<svg id="Layer_1" data-name="Layer 1" xmlns="http://www.w3.org/2000/svg" viewBox="0 0 144 144"><defs><style>.cls-1{fill:#fff;}.cls-2{fill:#34495e;}</style></defs><title>Artboard 1</title><circle class="cls-1" cx="70.04" cy="66.8" r="56.5"/><path class="cls-2" d="M106.13,87.18,90.37,102.94a7.39,7.39,0,0,1-10.45,0l-15.6-15.6a7.39,7.39,0,0,1,0-10.45L67.18,74l5.07,5.07-.17.17a3.69,3.69,0,0,0,0,5.22L82.7,95.1a3.69,3.69,0,0,0,5.22,0L98.21,84.81a3.69,3.69,0,0,0,0-5.22L87.59,69a3.67,3.67,0,0,0-5-.13l-5.1-5.1,2.61-2.61a7.39,7.39,0,0,1,10.45,0l15.6,15.6A7.39,7.39,0,0,1,106.13,87.18ZM56.81,63.66l-.08.08a3.7,3.7,0,0,1-5.23,0L40.89,53.13a3.7,3.7,0,0,1,0-5.23L51.25,37.53a3.7,3.7,0,0,1,5.23,0L67.1,48.14a3.7,3.7,0,0,1,0,5.23l5.13,5.13,1-1a9.73,9.73,0,0,0,0-13.75L60.74,31.34a9.72,9.72,0,0,0-13.75,0L34.64,43.69a9.73,9.73,0,0,0,0,13.76L47.08,69.89a9.73,9.73,0,0,0,13.76,0l1.1-1.1ZM57,53l-.4.4a3.6,3.6,0,0,0,0,5.08L77.43,79.39a3.59,3.59,0,0,0,5.08,0l.4-.4a3.6,3.6,0,0,0,0-5.08L62.05,53A3.6,3.6,0,0,0,57,53Z"/></svg>